# xmcd CD database file
#
# Track frame offsets:
#	150
#	20019
#	49982
#
# Disc length: 930 seconds
#
# Revision: 0
# Processed by: cddbd v1.5.1PL0 Copyright (c) Steve Scherf et al.
# Submitted via: CDex 1.51
#
DISCID=2203a003
DTITLE=久保田利伸 - AHHHHH!
DYEAR=1998
DGENRE=Japanese Pop
TTITLE0=AHHHHH!
TTITLE1=Love Reborn(KC'S "WHAT'CHA GONNA DO?”REMIX
TTITLE2=AHHHHH!(Original Karaoke)
EXTD=YEAR: 1998
EXTT0=
EXTT1=
EXTT2=
PLAYORDER=
